{"title":"Happy Feet 2-2011-720p BDRip x264 Ac3 5.1 mp4 Sub[X@720]","uid":7240374,"size":3524617186,"categoryP":"video","categoryS":"hd___movies","magnet":"?xt=urn:btih:d49efbf13df339f59489670a444cbabffa539200&amp;dn=Happy+Feet+2-2011-720p+BDRip+x264+Ac3+5.1+mp4+Sub%5BX%40720%5D&amp;tr=udp%3A%2F%2Ftracker.openbittorrent.com%3A80&amp;tr=udp%3A%2F%2Fopen.demonii.com%3A1337&amp;tr=udp%3A%2F%2Ftracker.coppersurfer.tk%3A6969&amp;tr=udp%3A%2F%2Fexodus.desync.com%3A6969","seeders":0,"leechers":1,"uploader":"jocktheripper","files":-1,"time":1336118882,"description":"FILM TITLE:Happy Feet 2-2011-720p BDRip x264 Ac3 5.1 mp4 Sub[X@720]\n\nGenre: kids,family,animation\n\nRelease:2011\n\nDirector:George Miller\n\nWriter:George Miller, Gary Eck, \n\nStars: Elijah Wood, Robin Williams and Pink\n\nCountry: usa\n\nLanguage: English\n\nplot:Mumble's son, Erik, is struggling to realize his talents in the Emperor Penguin world. Meanwhile, Mumble and his family and friends discover a new threat their home -- one that will take everyone working together to save them.\n\nIMDB Rating: 5.9\n\nIMDB LINK: http://www.imdb.com/title/tt1402488/\n*******************\n\n\nHappy Feet 2-2011-720p BDRip x264 Ac3 5.1 mp4 Sub[X@720]\nFormat : MPEG-4\nFormat profile : Base Media\nCodec ID : isom\nFile size : 3.23 GiB\nDuration : 1h 39mn\nOverall bit rate : 4 641 Kbps\n\n\nVideo\nID : 1\nFormat : AVC\nFormat/Info : Advanced Video Codec\nFormat profile : &lt;a class=&quot;__cf_email__&quot; href=&quot;/cdn-cgi/l/email-protection&quot; data-cfemail=&quot;9cd4f5fbf4dcd0a8b2ad&quot;&gt;[email&amp;#160;protected]&lt;/a&gt;&lt;script cf-hash='f9e31' type=&quot;text/javascript&quot;&gt;\n/* &lt;![CDATA[ */!function(){try{var t=&quot;currentScript&quot;in document?document.currentScript:function(){for(var t=document.getElementsByTagName(&quot;script&quot;),e=t.length;e--;)if(t[e].getAttribute(&quot;cf-hash&quot;))return t[e]}();if(t&amp;&amp;t.previousSibling){var e,r,n,i,c=t.previousSibling,a=c.getAttribute(&quot;data-cfemail&quot;);if(a){for(e=&quot;&quot;,r=parseInt(a.substr(0,2),16),n=2;a.length-n;n+=2)i=parseInt(a.substr(n,2),16)^r,e+=String.fromCharCode(i);e=document.createTextNode(e),c.parentNode.replaceChild(e,c)}}}catch(u){}}();/* ]]&gt; */&lt;/script&gt;\nFormat settings, CABAC : Yes\nFormat settings, ReFrames : 4 frames\nCodec ID : avc1\nCodec ID/Info : Advanced Video Coding\nDuration : 1h 39mn\nBit rate : 3 999 Kbps\nMaximum bit rate : 27.4 Mbps\nWidth : 1280 pixels\nHeight : 544 pixels\nDisplay aspect ratio : 2.35:1\nFrame rate mode : Constant\nFrame rate : 23.976 fps\nColor space : YUV\nChroma subsampling : 4:2:0\nBit depth : 8 bits\nScan type : Progressive\nBits/(Pixel*Frame) : 0.240\nStream size : 2.78 GiB (86%)\nTitle : AVC MPEG4\nWriting library : x264 core 124 \n\nAudio\nID : 2\nFormat : AC-3\nFormat/Info : Audio Coding 3\nMode extension : CM (complete main)\nCodec ID : ac-3\nDuration : 1h 39mn\nBit rate mode : Constant\nBit rate : 640 Kbps\nChannel(s) : 6 channels\nChannel positions : Front: L C R, Side: L R, LFE\nSampling rate : 48.0 KHz\nBit depth : 16 bits\nCompression mode : Lossy\nDelay relative to video : -3s 337ms\nStream size : 456 MiB (14%)\nTitle : Ac3 5.1 640kbps","torrent":{"xt":"urn:btih:d49efbf13df339f59489670a444cbabffa539200","amp;dn":"Happy+Feet+2-2011-720p+BDRip+x264+Ac3+5.1+mp4+Sub%5BX%40720%5D","amp;tr":["udp%3A%2F%2Ftracker.openbittorrent.com%3A80","udp%3A%2F%2Fopen.demonii.com%3A1337","udp%3A%2F%2Ftracker.coppersurfer.tk%3A6969","udp%3A%2F%2Fexodus.desync.com%3A6969"],"infoHash":"d49efbf13df339f59489670a444cbabffa539200","infoHashBuffer":{"type":"Buffer","data":[212,158,251,241,61,243,57,245,148,137,103,10,68,76,186,191,250,83,146,0]},"announce":[],"urlList":[]}}